<?xml version="1.0" encoding="utf-8"?>
<!-- Generator: Adobe Illustrator 24.2.1, SVG Export Plug-In . SVG Version: 6.00 Build 0)  -->
<svg version="1.1" id="Calque_1" xmlns="http://www.w3.org/2000/svg" xmlns:xlink="http://www.w3.org/1999/xlink" x="0px" y="0px"
	 viewBox="0 0 32 32" style="enable-background:new 0 0 32 32;" xml:space="preserve">
<style type="text/css">
	.st0{fill:#0071BC;}
</style>
<g>
	<path class="st0" d="M17.4,1.3l1.7,2.1c0.1,0.1,0.1,0.2,0.1,0.3C19.6,5,20,6.8,20.4,8.9c0.1,0.7-0.7,1.1-1.2,0.7
		c-0.9-0.7-1.9-1.5-1.9-1.5c-0.3-0.3-0.7-0.4-1.1-0.3C14.2,8,12.6,8.4,11,9c-2.8,1.2-4.6,3-5.4,5.4c-0.8,2.4-0.8,4.6,0.2,6.8
		c0.5,1.2,1.3,2.1,2.4,2.7c1,0.6,2.6,0.8,4.8,0.7s4.8-0.6,7.7-1.4c1-0.3,2-0.6,3-1c1-0.4,2.1-0.8,3.3-1.2c0.7-0.3,1.3-0.5,1.9-0.8
		c0.6-0.2,1.2,0.3,1,0.9L29.5,23c-0.1,0.5-0.7,1.1-1.2,1.2c-10.8,2.5-7.2,3.8-8.4,5c-3.2,3.1-7.4,2.4-10,1.6
		c-2.6-0.7-4.4-2.3-5.5-4.8c-1.2-2.8-1.6-5.8-1.2-9.2c0.4-3.4,1.6-6.4,3.7-9.1S11.3,3.2,14,2c0.8-0.4,1.6-0.6,2.6-0.9
		C16.9,1,17.2,1.1,17.4,1.3z"/>
</g>
<circle class="st0" cx="14" cy="17" r="2"/>
</svg>
